<?xml version="1.0" encoding="UTF-8" standalone="no" ?>
<!DOCTYPE svg PUBLIC "-//W3C//DTD SVG 1.1//EN" "http://www.w3.org/Graphics/SVG/1.1/DTD/svg11.dtd">
<svg xmlns="http://www.w3.org/2000/svg" xmlns:xlink="http://www.w3.org/1999/xlink" version="1.1" width="1080" height="1080" viewBox="0 0 1080 1080" xml:space="preserve">
<desc>Created with Fabric.js 5.2.4</desc>
<defs>
</defs>
<g transform="matrix(1 0 0 1 540 540)" id="e94cab3c-2ac6-409a-b130-3ab297285a40"  >
<rect style="stroke: none; stroke-width: 1; stroke-dasharray: none; stroke-linecap: butt; stroke-dashoffset: 0; stroke-linejoin: miter; stroke-miterlimit: 4; fill: rgb(255,255,255); fill-rule: nonzero; opacity: 1; visibility: hidden;" vector-effect="non-scaling-stroke"  x="-540" y="-540" rx="0" ry="0" width="1080" height="1080" />
</g>
<g transform="matrix(1 0 0 1 540 540)" id="4d1bac6c-addf-475d-b7d9-bfd39a06dec5"  >
</g>
<g transform="matrix(1 0 0 1 540 540)" id="5f4c8b06-28f9-412f-abf8-5e0869303ee1"  >
<path style="stroke: rgb(222,9,9); stroke-width: 0; stroke-dasharray: none; stroke-linecap: butt; stroke-dashoffset: 0; stroke-linejoin: miter; stroke-miterlimit: 4; fill: rgb(234,13,28); fill-rule: nonzero; opacity: 1;" vector-effect="non-scaling-stroke"  transform=" translate(-12, -11.89)" d="M 8.96173 18.9109 L 9.42605 18.3219 L 8.96173 18.9109 Z M 12 5.50063 L 11.4596 6.02073 C 11.601 6.16763 11.7961 6.25063 12 6.25063 C 12.2039 6.25063 12.399 6.16763 12.5404 6.02073 L 12 5.50063 Z M 15.0383 18.9109 L 15.5026 19.4999 L 15.0383 18.9109 Z M 9.42605 18.3219 C 7.91039 17.1271 6.25307 15.9603 4.93829 14.4798 C 3.64922 13.0282 2.75 11.3345 2.75 9.1371 L 1.25 9.1371 C 1.25 11.8026 2.3605 13.8361 3.81672 15.4758 C 5.24723 17.0866 7.07077 18.3752 8.49742 19.4999 L 9.42605 18.3219 Z M 2.75 9.1371 C 2.75 6.98623 3.96537 5.18252 5.62436 4.42419 C 7.23607 3.68748 9.40166 3.88258 11.4596 6.02073 L 12.5404 4.98053 C 10.0985 2.44352 7.26409 2.02539 5.00076 3.05996 C 2.78471 4.07292 1.25 6.42503 1.25 9.1371 L 2.75 9.1371 Z M 8.49742 19.4999 C 9.00965 19.9037 9.55954 20.3343 10.1168 20.6599 C 10.6739 20.9854 11.3096 21.25 12 21.25 L 12 19.75 C 11.6904 19.75 11.3261 19.6293 10.8736 19.3648 C 10.4213 19.1005 9.95208 18.7366 9.42605 18.3219 L 8.49742 19.4999 Z M 15.5026 19.4999 C 16.9292 18.3752 18.7528 17.0866 20.1833 15.4758 C 21.6395 13.8361 22.75 11.8026 22.75 9.1371 L 21.25 9.1371 C 21.25 11.3345 20.3508 13.0282 19.0617 14.4798 C 17.7469 15.9603 16.0896 17.1271 14.574 18.3219 L 15.5026 19.4999 Z M 22.75 9.1371 C 22.75 6.42503 21.2153 4.07292 18.9992 3.05996 C 16.7359 2.02539 13.9015 2.44352 11.4596 4.98053 L 12.5404 6.02073 C 14.5983 3.88258 16.7639 3.68748 18.3756 4.42419 C 20.0346 5.18252 21.25 6.98623 21.25 9.1371 L 22.75 9.1371 Z M 14.574 18.3219 C 14.0479 18.7366 13.5787 19.1005 13.1264 19.3648 C 12.6739 19.6293 12.3096 19.75 12 19.75 L 12 21.25 C 12.6904 21.25 13.3261 20.9854 13.8832 20.6599 C 14.4405 20.3343 14.9903 19.9037 15.5026 19.4999 L 14.574 18.3219 Z" stroke-linecap="round" />
</g>
</svg>